<svg id="Layer_1" data-name="Layer 1" xmlns="http://www.w3.org/2000/svg" viewBox="0 0 149.75 106.74"><defs><style>.cls-1{fill:none;stroke:#000;stroke-linecap:round;stroke-miterlimit:10;stroke-width:2px;}.cls-2{fill:#fff;}</style></defs><title>Artboard 2 copy</title><rect class="cls-1" x="40.18" y="12" width="69.4" height="83.6" rx="6.54" ry="6.54"/><line class="cls-1" x1="99.14" y1="49.81" x2="50.62" y2="49.81"/><line class="cls-1" x1="99.14" y1="59.2" x2="50.62" y2="59.2"/><line class="cls-1" x1="81.01" y1="68.58" x2="50.62" y2="68.58"/><polyline class="cls-1" points="74.51 80.33 84.87 88.92 102.77 69.83"/><path class="cls-2" d="M61.12,21.89a2.14,2.14,0,0,0-1.44-.5c-.62,0-1.12.24-1.12.66s.55.65,1.35.71c1.22.11,2.39.56,2.39,1.95S61,26.62,59.68,26.63A3.17,3.17,0,0,1,57,25.4l.83-.83a2.52,2.52,0,0,0,1.9.85c.74,0,1.25-.28,1.25-.71s-.41-.74-1.25-.81c-1.32-.12-2.5-.43-2.48-1.85,0-1.19,1.18-1.82,2.47-1.82a2.79,2.79,0,0,1,2.32.93Z"/><path class="cls-2" d="M64.29,21a.73.73,0,0,1-1.46,0A.73.73,0,0,1,64.29,21ZM62.92,22v4.6h1.29V22Z"/><path class="cls-2" d="M67.79,26.62V24.17c0-.58-.23-1-.75-1a.87.87,0,0,0-.8,1v2.44H65V22h1.21v.4c.23-.35.79-.4,1.16-.4a1.3,1.3,0,0,1,1.28.82A1.57,1.57,0,0,1,70.07,22c.92,0,1.75.46,1.75,2.1v2.5H70.53V24.15c0-.55-.15-.92-.66-.92a.85.85,0,0,0-.81.94v2.45Z"/><path class="cls-2" d="M72.57,29.4V22h1.22v.46a2.28,2.28,0,0,1,3.63,1.84,2.1,2.1,0,0,1-2.19,2.28,1.83,1.83,0,0,1-1.38-.42v3.2Zm3.57-5.06a1,1,0,0,0-1.08-1.13,1.07,1.07,0,0,0-1.18,1.13,1.13,1.13,0,0,0,1.18,1.13A1.05,1.05,0,0,0,76.14,24.34Z"/><path class="cls-2" d="M80,25.37l.31-.31L81.34,24l.93-.93a2.19,2.19,0,0,0-.76-.72,2.53,2.53,0,0,0-1.22-.3,2.23,2.23,0,0,0-2.38,2.3,2.16,2.16,0,0,0,2.38,2.28,2.86,2.86,0,0,0,1.26-.27,1.77,1.77,0,0,0,.76-.67l-.8-.84a1.27,1.27,0,0,1-.82.55A1.81,1.81,0,0,1,80,25.37Zm.33-2.17a1.12,1.12,0,0,1,.32,0L79.2,24.65a1.12,1.12,0,0,1,1.09-1.45Z"/><path d="M61.12,21.89a2.14,2.14,0,0,0-1.44-.5c-.62,0-1.12.24-1.12.66s.55.65,1.35.71c1.22.11,2.39.56,2.39,1.95S61,26.62,59.68,26.63A3.17,3.17,0,0,1,57,25.4l.83-.83a2.52,2.52,0,0,0,1.9.85c.74,0,1.25-.28,1.25-.71s-.41-.74-1.25-.81c-1.32-.12-2.5-.43-2.48-1.85,0-1.19,1.18-1.82,2.47-1.82a2.79,2.79,0,0,1,2.32.93Z"/><path d="M64.29,21a.73.73,0,0,1-1.46,0A.73.73,0,0,1,64.29,21ZM62.92,22v4.6h1.29V22Z"/><path d="M67.79,26.62V24.17c0-.58-.23-1-.75-1a.87.87,0,0,0-.8,1v2.44H65V22h1.21v.4c.23-.35.79-.4,1.16-.4a1.3,1.3,0,0,1,1.28.82A1.57,1.57,0,0,1,70.07,22c.92,0,1.75.46,1.75,2.1v2.5H70.53V24.15c0-.55-.15-.92-.66-.92a.85.85,0,0,0-.81.94v2.45Z"/><path d="M72.57,29.4V22h1.22v.46a2.28,2.28,0,0,1,3.63,1.84,2.1,2.1,0,0,1-2.19,2.28,1.83,1.83,0,0,1-1.38-.42v3.2Zm3.57-5.06a1,1,0,0,0-1.08-1.13,1.07,1.07,0,0,0-1.18,1.13,1.13,1.13,0,0,0,1.18,1.13A1.05,1.05,0,0,0,76.14,24.34Z"/><path d="M80,25.37l.31-.31L81.34,24l.93-.93a2.19,2.19,0,0,0-.76-.72,2.53,2.53,0,0,0-1.22-.3,2.23,2.23,0,0,0-2.38,2.3,2.16,2.16,0,0,0,2.38,2.28,2.86,2.86,0,0,0,1.26-.27,1.77,1.77,0,0,0,.76-.67l-.8-.84a1.27,1.27,0,0,1-.82.55A1.81,1.81,0,0,1,80,25.37Zm.33-2.17a1.12,1.12,0,0,1,.32,0L79.2,24.65a1.12,1.12,0,0,1,1.09-1.45Z"/><path d="M87.4,24.37a1.84,1.84,0,0,1-1,1.58,1.46,1.46,0,0,1,1,1.45,2.12,2.12,0,0,1-2.38,2c-1.53,0-2.32-.77-2.3-2.07h1.19c0,.69.52.91,1.11.91s1.08-.27,1.08-.83-.27-.78-1.07-.78a2.16,2.16,0,0,1-2.37-2.27,2.36,2.36,0,0,1,4.71,0Zm-3.48,0a1.07,1.07,0,0,0,1.14,1.08,1,1,0,0,0,1.11-1.08,1.11,1.11,0,0,0-1.11-1.14A1.07,1.07,0,0,0,83.92,24.35Z"/><path d="M87.4,24.37a1.84,1.84,0,0,1-1,1.58,1.46,1.46,0,0,1,1,1.45,2.12,2.12,0,0,1-2.38,2c-1.53,0-2.32-.77-2.3-2.07h1.19c0,.69.52.91,1.11.91s1.08-.27,1.08-.83-.27-.78-1.07-.78a2.16,2.16,0,0,1-2.37-2.27,2.36,2.36,0,0,1,4.71,0Zm-3.48,0a1.07,1.07,0,0,0,1.14,1.08,1,1,0,0,0,1.11-1.08,1.11,1.11,0,0,0-1.11-1.14A1.07,1.07,0,0,0,83.92,24.35Z"/><path d="M90.39,22A2.25,2.25,0,0,0,88,24.34a2.41,2.41,0,0,0,4.81,0A2.25,2.25,0,0,0,90.39,22Zm-.23,3.7v0h0l-1.48-1.48.63-.63.88.88,1.4-1.4.61.61Z"/><path d="M90.39,22A2.25,2.25,0,0,0,88,24.34a2.41,2.41,0,0,0,4.81,0A2.25,2.25,0,0,0,90.39,22Zm-.23,3.7v0h0l-1.48-1.48.63-.63.88.88,1.4-1.4.61.61Z"/></svg>