<svg id="Layer_1" data-name="Layer 1" xmlns="http://www.w3.org/2000/svg" xmlns:xlink="http://www.w3.org/1999/xlink" viewBox="0 0 733.07 187.38"><defs><style>.cls-1{fill:#fff;}.cls-2{fill:url(#New_Gradient_Swatch);}</style><linearGradient id="New_Gradient_Swatch" y1="93.69" x2="733.07" y2="93.69" gradientUnits="userSpaceOnUse"><stop offset="0" stop-color="#40f65b"/><stop offset="0.22" stop-color="#37e660"/><stop offset="0.72" stop-color="#26c86a"/><stop offset="1" stop-color="#1fbd6e"/></linearGradient></defs><title>Artboard 5</title><path class="cls-1" d="M85.18,34c-7.1-7.18-19.48-10.33-29.49-10.33-12.55,0-22.75,5.08-22.75,13.48,0,11.2,11.11,13.3,27.49,14.7,25.11,2.1,49,11.37,49,39.72,0,27.3-26.21,39.2-53.7,39.37-22,.18-44.95-8-55.69-25.2l16.93-17c9.82,12.07,26,17.32,39,17.32,15.1,0,25.48-5.77,25.48-14.52.18-10.33-8.38-15-25.67-16.45-26.93-2.45-51-8.92-50.59-37.8C5.28,13,29.3,0,55.51,0,75.17,0,89.91,4.2,103,18.9Z"/><path class="cls-1" d="M150.15,15c0,19.66-29.85,19.66-29.85,0S150.15-4.71,150.15,15Zm-28,21.66v94.1h26.21V36.61Z"/><path class="cls-1" d="M221.67,130.71V80.47c0-11.83-4.73-19.65-15.47-19.65-10.38,0-16.2,9.64-16.2,19.84v50.05H163.79V36.79h24.72l0,8.2c4.72-7.24,16-8.2,23.67-8.2,9.82,0,20.38,3.64,26.2,16.75,8-12.2,16.57-16.93,29.85-16.93,18.75,0,35.86,9.46,35.86,43v51.15H277.73V80.11c0-11.28-3.1-18.75-13.65-18.75-10.38,0-16.57,8.92-16.57,19.11v50.24Z"/><path class="cls-1" d="M319.31,187.38V37h25l.12,9.46c7.55-7,18.57-9.1,29.85-9.1,26.39,0,44.41,18.56,44.41,46.59,0,29.12-18.38,46.78-44.77,46.78-9.47,0-22.61-1.59-28.21-8.74v65.41Zm73-103.45c0-12.92-8-23.11-22-23.11-11.83,0-24.21,6-24.21,23.11,0,15.11,12.19,23.12,24.21,23.12C383.74,107.05,392.29,97.4,392.29,83.93Z"/><path class="cls-1" d="M470.38,105.07l6.4-6.41,22-22,18.94-19A43.14,43.14,0,0,0,502.27,43a50.68,50.68,0,0,0-25-6.25c-25.12,0-48.6,15.7-48.6,47.1,0,28.59,18.06,46.53,48.6,46.53,10.07,0,18.68-1.95,25.71-5.57,6.66-3.43,11.89-7.37,15.57-13.59L502.26,94c-5.1,6.47-9.23,9.85-16.85,11.35A40,40,0,0,1,470.38,105.07Zm6.86-44.39a23.45,23.45,0,0,1,6.46.9L454.84,90.43a23.92,23.92,0,0,1-.9-6.57C453.94,68.91,464,60.68,477.24,60.68Z"/><path class="cls-2" d="M85.18,34c-7.1-7.18-19.48-10.33-29.49-10.33-12.55,0-22.75,5.08-22.75,13.48,0,11.2,11.11,13.3,27.49,14.7,25.11,2.1,49,11.37,49,39.72,0,27.3-26.21,39.2-53.7,39.37-22,.18-44.95-8-55.69-25.2l16.93-17c9.82,12.07,26,17.32,39,17.32,15.1,0,25.48-5.77,25.48-14.52.18-10.33-8.38-15-25.67-16.45-26.93-2.45-51-8.92-50.59-37.8C5.28,13,29.3,0,55.51,0,75.17,0,89.91,4.2,103,18.9Z"/><path class="cls-2" d="M150.15,15c0,19.66-29.85,19.66-29.85,0S150.15-4.71,150.15,15Zm-28,21.66v94.1h26.21V36.61Z"/><path class="cls-2" d="M221.67,130.71V80.47c0-11.83-4.73-19.65-15.47-19.65-10.38,0-16.2,9.64-16.2,19.84v50.05H163.79V36.79h24.72l0,8.2c4.72-7.24,16-8.2,23.67-8.2,9.82,0,20.38,3.64,26.2,16.75,8-12.2,16.57-16.93,29.85-16.93,18.75,0,35.86,9.46,35.86,43v51.15H277.73V80.11c0-11.28-3.1-18.75-13.65-18.75-10.38,0-16.57,8.92-16.57,19.11v50.24Z"/><path class="cls-2" d="M319.31,187.38V37h25l.12,9.46c7.55-7,18.57-9.1,29.85-9.1,26.39,0,44.41,18.56,44.41,46.59,0,29.12-18.38,46.78-44.77,46.78-9.47,0-22.61-1.59-28.21-8.74v65.41Zm73-103.45c0-12.92-8-23.11-22-23.11-11.83,0-24.21,6-24.21,23.11,0,15.11,12.19,23.12,24.21,23.12C383.74,107.05,392.29,97.4,392.29,83.93Z"/><path class="cls-2" d="M470.38,105.07l6.4-6.41,22-22,18.94-19A43.14,43.14,0,0,0,502.27,43a50.68,50.68,0,0,0-25-6.25c-25.12,0-48.6,15.7-48.6,47.1,0,28.59,18.06,46.53,48.6,46.53,10.07,0,18.68-1.95,25.71-5.57,6.66-3.43,11.89-7.37,15.57-13.59L502.26,94c-5.1,6.47-9.23,9.85-16.85,11.35A40,40,0,0,1,470.38,105.07Zm6.86-44.39a23.45,23.45,0,0,1,6.46.9L454.84,90.43a23.92,23.92,0,0,1-.9-6.57C453.94,68.91,464,60.68,477.24,60.68Z"/><path class="cls-2" d="M622.51,84.53c0,11.38-6.19,25.42-19.29,32.34,20,9.15,20,24.29,20,29.71,0,27.47-24,40.74-48.78,40.74-31.12,0-47.32-15.88-47-42.42h24.38c.91,14.2,10.56,18.69,22.57,18.69,11.65,0,22.21-5.61,22.21-17,0-9-5.64-15.88-21.84-15.88-29.49,0-48.6-17.95-48.6-46.54,0-31.4,23.48-47.1,48.6-47.1C602.38,37.06,622.51,55.48,622.51,84.53Zm-71-.37c0,13.27,10,22,23.3,22,11.83,0,22.57-7.29,22.57-22,0-12.9-9.47-23.17-22.57-23.17C561.54,61,551.53,69.21,551.53,84.16Z"/><path class="cls-2" d="M622.51,84.53c0,11.38-6.19,25.42-19.29,32.34,20,9.15,20,24.29,20,29.71,0,27.47-24,40.74-48.78,40.74-31.12,0-47.32-15.88-47-42.42h24.38c.91,14.2,10.56,18.69,22.57,18.69,11.65,0,22.21-5.61,22.21-17,0-9-5.64-15.88-21.84-15.88-29.49,0-48.6-17.95-48.6-46.54,0-31.4,23.48-47.1,48.6-47.1C602.38,37.06,622.51,55.48,622.51,84.53Zm-71-.37c0,13.27,10,22,23.3,22,11.83,0,22.57-7.29,22.57-22,0-12.9-9.47-23.17-22.57-23.17C561.54,61,551.53,69.21,551.53,84.16Z"/><path class="cls-2" d="M683.74,36.79c-29.84,0-49.14,20-49.14,47.14s18.75,46.78,49.14,46.78c30.58,0,49.33-19.66,49.33-46.78S713.78,36.79,683.74,36.79ZM679,112.38l-.29-.29-.12.12L648.34,81.92,661.2,69.05l18.12,18.11L708,58.53,720.41,71Z"/><path class="cls-2" d="M683.74,36.79c-29.84,0-49.14,20-49.14,47.14s18.75,46.78,49.14,46.78c30.58,0,49.33-19.66,49.33-46.78S713.78,36.79,683.74,36.79ZM679,112.38l-.29-.29-.12.12L648.34,81.92,661.2,69.05l18.12,18.11L708,58.53,720.41,71Z"/></svg>