<svg id="Layer_1" data-name="Layer 1" xmlns="http://www.w3.org/2000/svg" viewBox="0 0 149.75 106.74"><defs><style>.cls-1{fill:none;stroke:#000;stroke-linecap:round;stroke-miterlimit:10;stroke-width:2px;}</style></defs><title>Artboard 2</title><path d="M112.57,92.9a4.4,4.4,0,1,1,4.4-4.4A4.44,4.44,0,0,1,112.57,92.9Zm0-6.7a2.4,2.4,0,1,0,2.4,2.4A2.43,2.43,0,0,0,112.57,86.2Z"/><path d="M118.37,17.2h-16.1a1,1,0,0,1,0-2h16.1a1,1,0,0,1,0,2Z"/><path d="M122.87,17.2h-1.5a1,1,0,0,1,0-2h1.5a.94.94,0,0,1,1,1A1,1,0,0,1,122.87,17.2Z"/><path d="M128,54.9a15.73,15.73,0,0,0,1.3-6.5,16.66,16.66,0,0,0-3.3-10c0-.1-.1-.1-.2-.2a16.82,16.82,0,0,0-13.3-6.6c-.7,0-1.3.1-2,.1h-.1a16.75,16.75,0,0,0-11.3,26.6c0,.1.1.1.2.2A16.71,16.71,0,0,0,128,54.9Zm-1.6-1.4h-8.5l7.3-12.7a14.93,14.93,0,0,1,2.1,7.6A12.48,12.48,0,0,1,126.37,53.5Zm-16.8,0-3-5.2,3-5.2h6l3,5.2-3,5.2ZM124,39l-4.3,7.4-7.4-12.8h.3A14.68,14.68,0,0,1,124,39Zm-13.8-5.2,4.3,7.4H99.67A15.06,15.06,0,0,1,110.17,33.8Zm-11.4,9.4h8.5l-7.4,12.7a14.26,14.26,0,0,1-1.1-12.7Zm2.4,14.6,4.3-7.4,7.4,12.8h-.3A15,15,0,0,1,101.17,57.8ZM115,62.9l-4.3-7.4h14.7A14.15,14.15,0,0,1,115,62.9Z"/><path d="M134.67,10H90.47a3,3,0,0,0-3,3V94.7a3,3,0,0,0,3,3h44.2a3,3,0,0,0,3-3V12.9A3,3,0,0,0,134.67,10Zm-44.2,2h44.2a1,1,0,0,1,1,1V79.6H89.47V12.9A1,1,0,0,1,90.47,12Zm44.2,83.6H90.47a1,1,0,0,1-1-1V81.5h46.2V94.6A1,1,0,0,1,134.67,95.6Z"/><path d="M28.85,45.52v.94a2.94,2.94,0,0,0,2.94,2.94h.4a2.94,2.94,0,0,0,2.94-2.94v-.29h6.63v.29A2.94,2.94,0,0,0,44.7,49.4h.4A2.94,2.94,0,0,0,48,46.46V45.34a2.94,2.94,0,0,0,.89-2.11V38.4A2.93,2.93,0,0,0,47.67,36L45,29.41a1.07,1.07,0,0,0-1-.69H32.66a1.08,1.08,0,0,0-1,.69L29,36a2.93,2.93,0,0,0-1.26,2.41v4.83A2.94,2.94,0,0,0,28.85,45.52ZM46,37.63a.78.78,0,0,1,.77.77v4.83A.78.78,0,0,1,46,44H30.69a.78.78,0,0,1-.78-.77V38.4a.78.78,0,0,1,.78-.77ZM33,46.46a.78.78,0,0,1-.77.78h-.4a.77.77,0,0,1-.77-.78v-.29H33Zm12.14.78h-.4a.77.77,0,0,1-.77-.78v-.29h1.94v.29A.77.77,0,0,1,45.1,47.24ZM33.39,30.89h9.9l1.83,4.57H31.56Z"/><path d="M56.25,20.36H20.43a6.23,6.23,0,0,0-6.22,6.22V80.15a6.24,6.24,0,0,0,6.22,6.23H56.25a6.24,6.24,0,0,0,6.22-6.23V26.58A6.23,6.23,0,0,0,56.25,20.36Zm4.06,59.79a4.06,4.06,0,0,1-4.06,4.06H20.43a4.06,4.06,0,0,1-4.06-4.06V26.58a4.06,4.06,0,0,1,4.06-4H56.25a4.06,4.06,0,0,1,4.06,4Z"/><path d="M52.21,54.46H24.64a1.09,1.09,0,0,0,0,2.17H52.21a1.09,1.09,0,0,0,0-2.17Z"/><path d="M52.21,59.81H24.64a1.09,1.09,0,0,0,0,2.17H52.21a1.09,1.09,0,0,0,0-2.17Z"/><path d="M52.21,65.17H24.64a1.08,1.08,0,0,0,0,2.16H52.21a1.08,1.08,0,1,0,0-2.16Z"/><path d="M52.21,75.87H39.77a1.09,1.09,0,0,0,0,2.17H52.21a1.09,1.09,0,0,0,0-2.17Z"/><path d="M33,43.42a2.61,2.61,0,1,0-2.61-2.61A2.61,2.61,0,0,0,33,43.42Zm0-3.05a.45.45,0,1,1-.44.44A.44.44,0,0,1,33,40.37Z"/><path d="M43.69,43.42a2.61,2.61,0,1,0-2.6-2.61A2.61,2.61,0,0,0,43.69,43.42Zm0-3.05a.45.45,0,1,1-.44.44A.45.45,0,0,1,43.69,40.37Z"/><line class="cls-1" x1="83.76" y1="19.2" x2="66.45" y2="16.2"/><line class="cls-1" x1="84.6" y1="28.72" x2="69.71" y2="48.35"/><line class="cls-1" x1="83.42" y1="24.39" x2="68.82" y2="30.89"/></svg>