<?xml version="1.0" encoding="UTF-8" standalone="no"?>
<!-- Created with Inkscape (http://www.inkscape.org/) by Marsupilami -->
<svg
   xmlns:svg="http://www.w3.org/2000/svg"
   xmlns="http://www.w3.org/2000/svg"
   version="1.0"
   width="1024"
   height="301"
   viewBox="0 0 116.0275 34.1325"
   id="svg2618">
  <defs
     id="defs2620" />
  <g
     transform="translate(-316.98625,-515.29593)"
     id="layer1">
    <path
       d="M 83.59375,0 L 83.59375,21.34375 L 88.28125,21.34375 L 88.28125,0 L 83.59375,0 z M 15.375,1.40625 L 0,16.78125 L 15.375,32.15625 L 24.6875,22.8125 L 20.28125,18.375 L 15.375,23.28125 L 8.96875,16.90625 L 15.375,10.5 L 26.21875,21.3125 L 35.65625,21.3125 L 35.65625,15.21875 L 29.1875,15.21875 L 15.375,1.40625 z M 37.65625,1.9375 L 37.65625,21.34375 L 45.40625,21.34375 C 48.953751,21.34375 52.40625,19.9975 52.40625,15.9375 C 52.406251,13.23875 51.24375,11.36 48.46875,11 L 48.46875,10.9375 C 50.036251,10.14125 50.59375,8.7475 50.59375,7 C 50.59375,3.3000002 48.2875,1.9375 44.84375,1.9375 L 37.65625,1.9375 z M 42.6875,5.8125 L 43.03125,5.8125 C 44.392502,5.8125001 45.96875,5.915 45.96875,7.6875 C 45.968749,9.3324998 44.58625,9.5625 43.25,9.5625 L 42.6875,9.5625 L 42.6875,5.8125 z M 60.125,7.71875 C 56.218752,7.71875 53.53125,10.94125 53.53125,14.71875 C 53.531251,18.4975 56.28125,21.78125 60.1875,21.78125 C 61.728751,21.78125 63.33375,21.185 64.15625,19.875 L 64.21875,19.875 L 64.21875,21.34375 L 68.90625,21.34375 L 68.90625,8.15625 L 64.21875,8.15625 L 64.21875,9.4375 C 63.242501,8.2812504 61.64125,7.71875 60.125,7.71875 z M 77.25,7.71875 C 74.3725,7.71875 71.437499,9.1375005 71.4375,12.375 C 71.4375,14.74 72.909998,15.45875 74.375,15.84375 C 75.83875,16.22875 77.312499,16.284999 77.3125,17.3125 C 77.3125,18.0325 76.435003,18.3125 75.84375,18.3125 C 74.6875,18.3125 73.07625,17.667501 72.125,17 L 70.4375,20.25 C 72.03125,21.22625 73.875002,21.78125 75.75,21.78125 C 78.80875,21.78125 81.96875,20.313751 81.96875,16.84375 C 81.96875,14.4025 80.341252,13.375 78.15625,12.9375 C 77.51375,12.80875 76.03125,12.68 76.03125,11.78125 C 76.03125,11.1125 76.959996,10.90625 77.5,10.90625 C 78.29625,10.90625 79.311251,11.14625 80.03125,11.53125 L 81.59375,8.5625 C 80.2325,7.94625 78.741254,7.71875 77.25,7.71875 z M 97.28125,7.71875 C 92.988747,7.71875 90,10.355 90,14.75 C 89.999998,19.29875 93.25625,21.78125 97.625,21.78125 C 100.6325,21.78125 103.59875,20.36 104.34375,17.25 L 99.84375,17.25 C 99.33,18.12375 98.595,18.4375 97.59375,18.4375 C 95.665,18.437501 94.65625,17.4325 94.65625,15.53125 L 104.5,15.53125 L 104.5,15.03125 C 104.5,10.53375 101.85625,7.71875 97.28125,7.71875 z M 115.125,7.96875 C 113.3,7.96875 111.775,8.6937497 110.875,10.3125 L 110.8125,10.3125 L 110.8125,8.15625 L 106.125,8.15625 L 106.125,21.34375 L 110.8125,21.34375 L 110.8125,16 C 110.8125,13.7375 111.46625,12.03125 114.0625,12.03125 C 114.78125,12.03125 115.38875,12.10875 116.03125,12.46875 L 116.03125,7.96875 L 115.125,7.96875 z M 97.53125,10.75 C 98.79,10.75 99.925,11.55375 100.15625,12.8125 L 94.75,12.8125 C 95.033752,11.45 96.16875,10.75 97.53125,10.75 z M 61.375,11.78125 C 63.276248,11.78125 64.375,13.13125 64.375,14.75 C 64.375004,16.42 63.27625,17.71875 61.375,17.71875 C 59.472498,17.718751 58.34375,16.42 58.34375,14.75 C 58.343752,13.13125 59.4725,11.78125 61.375,11.78125 z M 42.6875,13.3125 L 43.1875,13.3125 C 44.8325,13.3125 47.34375,13.06625 47.34375,15.40625 C 47.34375,17.53875 44.8025,17.46875 43.3125,17.46875 L 42.6875,17.46875 L 42.6875,13.3125 z M 66.21875,24.65625 L 66.21875,31.90625 L 67.8125,31.90625 L 67.8125,29.625 C 67.8125,29.10375 68.025003,28.5625 68.65625,28.5625 C 69.295,28.5625 69.374998,29.103749 69.375,29.625 L 69.375,31.90625 L 70.9375,31.90625 L 70.9375,29.15625 C 70.9375,28.02625 70.412499,27.28125 69.28125,27.28125 C 68.66,27.28125 68.211248,27.512501 67.84375,28 L 67.8125,28 L 67.8125,24.65625 L 66.21875,24.65625 z M 59.53125,24.8125 C 59.04375,24.8125 58.656251,25.231249 58.65625,25.71875 C 58.65625,26.20625 59.04375,26.59375 59.53125,26.59375 C 60.0175,26.59375 60.40625,26.206249 60.40625,25.71875 C 60.40625,25.23125 60.0175,24.8125 59.53125,24.8125 z M 37.5,25.34375 L 40.25,31.90625 L 41.59375,31.90625 L 44.40625,25.34375 L 42.53125,25.34375 L 40.9375,29.3125 L 39.375,25.34375 L 37.5,25.34375 z M 46.375,27.28125 C 44.920002,27.281249 43.90625,28.2 43.90625,29.6875 C 43.90625,31.21875 45.01875,32.03125 46.5,32.03125 C 47.519998,32.031249 48.5275,31.55375 48.78125,30.5 L 47.25,30.5 C 47.07625,30.8025 46.84,30.9375 46.5,30.9375 C 45.847499,30.9375 45.5,30.58 45.5,29.9375 L 48.8125,29.9375 L 48.8125,29.78125 C 48.812501,28.25875 47.925,27.28125 46.375,27.28125 z M 56.03125,27.28125 C 55.05125,27.28125 54.0625,27.78125 54.0625,28.875 C 54.0625,29.6775 54.564998,29.90125 55.0625,30.03125 C 55.5575,30.1625 56.062501,30.1825 56.0625,30.53125 C 56.0625,30.775 55.765,30.874999 55.5625,30.875 C 55.1725,30.875 54.633748,30.665001 54.3125,30.4375 L 53.71875,31.53125 C 54.25875,31.85875 54.895001,32.031249 55.53125,32.03125 C 56.57375,32.03125 57.656249,31.54625 57.65625,30.375 C 57.65625,29.54625 57.084999,29.211251 56.34375,29.0625 C 56.12625,29.01875 55.625,28.9625 55.625,28.65625 C 55.625,28.43 55.940001,28.375001 56.125,28.375 C 56.395,28.375 56.724999,28.462501 56.96875,28.59375 L 57.5,27.5625 C 57.03875,27.35375 56.537499,27.28125 56.03125,27.28125 z M 63.96875,27.28125 C 62.57,27.28125 61.46875,28.28625 61.46875,29.71875 C 61.46875,31.06375 62.553752,32.031249 63.875,32.03125 C 64.25875,32.03125 64.65125,31.956249 65,31.78125 L 65,30.4375 C 64.79,30.62875 64.497503,30.750001 64.21875,30.75 C 63.565,30.75 63.093751,30.298751 63.09375,29.65625 C 63.09375,29.04125 63.578748,28.562501 64.1875,28.5625 C 64.4925,28.5625 64.76375,28.700001 65,28.875 L 65,27.5625 C 64.68625,27.38875 64.334998,27.28125 63.96875,27.28125 z M 74.46875,27.28125 C 73.014998,27.281249 71.96875,28.2 71.96875,29.6875 C 71.968753,31.21875 73.08125,32.03125 74.5625,32.03125 C 75.58,32.031249 76.5925,31.55375 76.84375,30.5 L 75.3125,30.5 C 75.138752,30.8025 74.90125,30.9375 74.5625,30.9375 C 73.908751,30.9375 73.5625,30.58 73.5625,29.9375 L 76.90625,29.9375 L 76.90625,29.78125 C 76.906252,28.25875 76.01875,27.28125 74.46875,27.28125 z M 91.28125,27.28125 C 90.66,27.28125 90.209997,27.46 89.84375,28 L 89.84375,27.4375 L 88.25,27.4375 L 88.25,31.90625 L 89.84375,31.90625 L 89.84375,29.59375 C 89.84375,29.0375 90.008753,28.5625 90.65625,28.5625 C 91.44375,28.5625 91.374997,29.292501 91.375,29.71875 L 91.375,31.90625 L 92.96875,31.90625 L 92.96875,29.125 C 92.96875,28.03 92.484999,27.28125 91.28125,27.28125 z M 96.28125,27.28125 C 94.913747,27.281249 93.96875,28.415 93.96875,29.71875 C 93.968752,31.0025 94.8825,32 96.1875,32 C 96.781247,31.999999 97.1825,31.78375 97.59375,31.375 L 97.59375,31.59375 C 97.593753,32.318751 97.45,32.875 96.59375,32.875 C 96.445002,32.874999 96.26375,32.85125 96.125,32.78125 C 95.983753,32.712498 95.88875,32.5925 95.84375,32.4375 L 94.0625,32.4375 C 94.200001,33.61 95.56375,34.125 96.59375,34.125 C 98.24375,34.125 99.1875,33.36375 99.1875,31.46875 L 99.1875,27.4375 L 97.59375,27.4375 L 97.59375,27.90625 C 97.278747,27.46125 96.8075,27.28125 96.28125,27.28125 z M 102.65625,27.28125 C 101.20125,27.281249 100.1875,28.2 100.1875,29.6875 C 100.1875,31.21875 101.30125,32.03125 102.78125,32.03125 C 103.8,32.031249 104.81125,31.55375 105.0625,30.5 L 103.53125,30.5 C 103.35875,30.8025 103.12125,30.9375 102.78125,30.9375 C 102.13,30.9375 101.78125,30.58 101.78125,29.9375 L 105.09375,29.9375 L 105.09375,29.78125 C 105.09375,28.25875 104.205,27.28125 102.65625,27.28125 z M 109.1875,27.28125 C 108.565,27.28125 108.11625,27.46 107.75,28 L 107.75,27.4375 L 106.15625,27.4375 L 106.15625,31.90625 L 107.75,31.90625 L 107.75,29.59375 C 107.75,29.0375 107.915,28.5625 108.5625,28.5625 C 109.35,28.5625 109.28125,29.292501 109.28125,29.71875 L 109.28125,31.90625 L 110.875,31.90625 L 110.875,29.125 C 110.875,28.03 110.39,27.28125 109.1875,27.28125 z M 52.9375,27.375 C 52.31875,27.375 51.77375,27.60875 51.46875,28.15625 L 51.46875,27.4375 L 49.875,27.4375 L 49.875,31.90625 L 51.46875,31.90625 L 51.46875,30.09375 C 51.46875,29.33 51.683749,28.749999 52.5625,28.75 C 52.80625,28.75 52.999999,28.783751 53.21875,28.90625 L 53.21875,27.375 L 52.9375,27.375 z M 81,27.375 C 80.38125,27.375 79.8675,27.60875 79.5625,28.15625 L 79.53125,28.15625 L 79.53125,27.4375 L 77.9375,27.4375 L 77.9375,31.90625 L 79.53125,31.90625 L 79.53125,30.09375 C 79.53125,29.33 79.744997,28.749999 80.625,28.75 C 80.86875,28.75 81.094998,28.783751 81.3125,28.90625 L 81.3125,27.375 L 81,27.375 z M 58.71875,27.4375 L 58.71875,31.90625 L 60.3125,31.90625 L 60.3125,27.4375 L 58.71875,27.4375 z M 82.28125,27.4375 L 82.28125,30.125 C 82.28125,31.595 83.311247,32.031249 84.65625,32.03125 C 86.0025,32.03125 87.062497,31.594999 87.0625,30.125 L 87.0625,27.4375 L 85.46875,27.4375 L 85.46875,29.8125 C 85.46875,30.38 85.312497,30.781251 84.65625,30.78125 C 84.00125,30.78125 83.875004,30.379999 83.875,29.8125 L 83.875,27.4375 L 82.28125,27.4375 z M 46.46875,28.3125 C 46.896248,28.3125 47.26625,28.605 47.34375,29.03125 L 45.53125,29.03125 C 45.626251,28.568751 46.0075,28.3125 46.46875,28.3125 z M 74.53125,28.3125 C 74.958746,28.3125 75.36,28.605 75.4375,29.03125 L 73.59375,29.03125 C 73.69,28.568751 74.07,28.3125 74.53125,28.3125 z M 102.75,28.3125 C 103.17625,28.3125 103.54625,28.605 103.625,29.03125 L 101.8125,29.03125 C 101.90875,28.568751 102.29,28.3125 102.75,28.3125 z M 96.625,28.625 C 97.274997,28.624999 97.65625,29.10875 97.65625,29.65625 C 97.656253,30.219999 97.2725,30.625 96.625,30.625 C 95.977502,30.625 95.625,30.22 95.625,29.65625 C 95.625003,29.109999 95.9775,28.625 96.625,28.625 z"
       transform="translate(316.98625,515.29593)"
       id="path2576"
       style="fill:#1b4d9b;fill-opacity:1;fill-rule:nonzero;stroke:none" />
  </g>
</svg>
