<?xml version="1.0" encoding="utf-8"?>
<!-- Generator: Adobe Illustrator 22.1.0, SVG Export Plug-In . SVG Version: 6.00 Build 0)  -->
<svg version="1.1" id="Ebene_1" xmlns="http://www.w3.org/2000/svg" xmlns:xlink="http://www.w3.org/1999/xlink" x="0px" y="0px"
	 viewBox="0 0 93.2 22.1" style="enable-background:new 0 0 93.2 22.1;" xml:space="preserve">
<style type="text/css">
	.st0{fill:#F15722;}
	.st1{fill:#F6871F;}
	.st2{fill:#DB3726;}
</style>
<g>
	<g>
		<path class="st0" d="M15.5,3.2c-0.9-0.7-2.2-0.9-3.4-0.9c-2.2,0-4.9,1-4.9,3.7c0,0.4,0.1,0.7,0.1,1C6.8,7.5,6.1,8,5.1,8
			C3.8,8,2.9,7.2,2.9,5.9c0-1.2,0.9-2,2.1-2c0.6,0,1,0.2,1.3,0.4l0.9-1.5C6.7,2.5,5.8,2.2,4.6,2.2C2.3,2.2,0,3.4,0,5.9
			c0,2.5,2,3.8,4.5,3.8c1.6,0,2.8-0.8,3.5-1.6c0.9,1,2.5,1.5,4,1.5c1.2,0,2.5-0.3,3.4-0.9V3.2z M12.1,8c-1.1,0-2-0.9-2-2s0.9-2,2-2
			c1.1,0,2,0.9,2,2S13.2,8,12.1,8z"/>
		<path class="st1" d="M27.7,2.4c-0.2,0-0.4,0-0.5,0c-0.8,0.1-1.5,0.4-2,0.8V2.6h-2.2v1.1c-0.9-1-2.6-1.3-3.9-1.3h0
			c-1.2,0-2.5,0.3-3.4,0.9v5.4c0.9,0.7,2.2,0.9,3.4,0.9h0c1.5,0,2.9-0.5,3.9-1.3v3.4h2.3v-3c0.4,0.3,1,0.7,2,0.9c0.2,0,0.4,0,0.6,0
			c1.8,0,4.2-1.1,4.2-3.6C31.9,3.6,30,2.4,27.7,2.4z M18.9,8c-1.1,0-2-0.9-2-2c0-1.1,0.9-2,2-2c1.1,0,2,0.9,2,2
			C20.9,7.1,20,8,18.9,8z M27.1,8.1C27.1,8.1,27.1,8.1,27.1,8.1c-1.2,0-2.1-0.9-2.1-2.2c0-1.2,0.9-2.1,2.1-2.1c0,0,0,0,0,0
			c1.2,0,2,0.9,2,2.1C29.2,7.1,28.3,8.1,27.1,8.1z"/>
		<path class="st2" d="M15.5,8.7c-0.8-0.6-1.4-1.5-1.4-2.7c0-1.3,0.6-2.1,1.4-2.7c0.8,0.6,1.4,1.5,1.4,2.7
			C16.9,7.2,16.3,8.1,15.5,8.7z"/>
	</g>
	<g>
		<path d="M36.2,3.7L36.2,3.7c0.5-1,1-1.1,2-1.1v1.1c-0.1,0-0.2,0-0.3,0c-0.1,0-0.2,0-0.3,0c-1.2,0-1.5,0.9-1.5,1.7v3.8h-1V2.8h1
			V3.7z"/>
		<path d="M39.6,6.3c0,1.8,0.5,2.2,1.3,2.2c0.7,0,1.1-0.6,1.1-1.2h1.1c0,1.4-0.9,2.1-2.2,2.1c-1.4,0-2.4-0.4-2.4-3.2
			c0-1.9,0.2-3.4,2.4-3.4c1.8,0,2.3,1,2.3,3.1v0.5H39.6z M42.1,5.5c0-1.9-0.5-2.1-1.3-2.1c-0.7,0-1.2,0.3-1.2,2.1H42.1z"/>
		<path d="M47.2,4.8c0-1.1-0.5-1.3-0.9-1.3c-0.8,0-1.3,0.4-1.3,2.1c0,2.1,0.3,2.8,1.3,2.8c0.2,0,1-0.3,0.9-1.4h1.1
			c0,1.8-1.3,2.3-2,2.3c-1.4,0-2.4-0.4-2.4-3.2c0-1.9,0.2-3.4,2.4-3.4c1.3,0,2,0.8,2,2.2H47.2z"/>
		<path d="M52.9,9.2V4.8c0-0.8-0.3-1.3-1.1-1.3c-1,0-1.3,0.8-1.3,1.9v3.8h-1V0h1v3.6h0.1c0.4-0.8,0.9-1,1.7-1c1.1,0,1.7,0.5,1.7,2
			v4.6H52.9z"/>
		<path d="M55.5,2.8V1.5l1-0.5v1.7h1.4v0.8h-1.4v3.9c0,0.4,0,0.9,1,0.9c0.1,0,0.2,0,0.5-0.1v0.8c-0.3,0-0.7,0.1-1,0.1
			c-1,0-1.4-0.4-1.4-1.1V3.5h-1.1V2.8H55.5z"/>
		<path d="M60.7,9.3c-1.4,0-2.3-0.6-2.2-2.1h1.2c0,0.4,0,1.2,1.1,1.2c0.6,0,1.1-0.3,1.1-1c0-1.1-3.2-1.2-3.2-3.1
			c0-0.7,0.4-1.8,2.2-1.8c1.1,0,2.1,0.5,2,1.8h-1.2c0-0.7-0.3-1-1-1c-0.6,0-1,0.3-1,0.9c0,1.1,3.2,1.1,3.2,3.1
			C62.9,8.8,62,9.3,60.7,9.3z"/>
		<path d="M65.8,9.3c-1.4,0-2.3-0.6-2.2-2.1h1.2c0,0.4,0,1.2,1.1,1.2c0.6,0,1.1-0.3,1.1-1c0-1.1-3.2-1.2-3.2-3.1
			c0-0.7,0.4-1.8,2.2-1.8c1.1,0,2.1,0.5,2,1.8h-1.2c0-0.7-0.3-1-1-1c-0.6,0-1,0.3-1,0.9c0,1.1,3.2,1.1,3.2,3.1
			C68,8.8,67,9.3,65.8,9.3z"/>
		<path d="M72.1,4.8c0-1.1-0.5-1.3-0.9-1.3c-0.8,0-1.3,0.4-1.3,2.1c0,2.1,0.3,2.8,1.3,2.8c0.2,0,1-0.3,0.9-1.4h1.1
			c0,1.8-1.3,2.3-2,2.3c-1.4,0-2.4-0.4-2.4-3.2c0-1.9,0.2-3.4,2.4-3.4c1.3,0,2,0.8,2,2.2H72.1z"/>
		<path d="M77.6,9.2V4.8c0-0.8-0.3-1.3-1.1-1.3c-1,0-1.3,0.8-1.3,1.9v3.8h-1V0h1v3.6h0.1c0.4-0.8,0.9-1,1.7-1c1.1,0,1.7,0.5,1.7,2
			v4.6H77.6z"/>
		<path d="M83.4,2.8h1v5.1c0,0.4,0,0.9,0.1,1.3h-1.1V8.4h0c-0.3,0.6-1,0.9-1.6,0.9c-1.1,0-1.7-0.6-1.7-1.7V2.8h1v4.5
			c0,0.8,0.4,1.3,1.1,1.3c0.6,0,1.3-0.4,1.3-1.5V2.8z"/>
		<path d="M86,2.8V1.5l1-0.5v1.7h1.4v0.8H87v3.9c0,0.4,0,0.9,1,0.9c0.1,0,0.2,0,0.5-0.1v0.8c-0.3,0-0.7,0.1-1,0.1
			c-1,0-1.4-0.4-1.4-1.1V3.5h-1.1V2.8H86z"/>
		<path d="M93,3.7l-2.8,4.6h2.9v0.9h-4.1v-1l2.8-4.6v0h-2.7V2.8H93V3.7z"/>
	</g>
	<g>
		<path d="M48.3,20c0,1.6,1,1.6,1.2,1.6c0.3,0,0.7-0.1,0.9-0.4l0,0.6c-0.2,0.1-0.5,0.2-1,0.2c-1.7,0-1.7-1.8-1.7-2.2
			c0-1.6,0.8-2.2,1.5-2.2c1.2,0,1.4,1.3,1.4,2.4H48.3z M50.2,19.6c0-1.1-0.5-1.5-0.9-1.5c-0.7,0-1,0.9-1,1.5H50.2z"/>
		<path d="M51.6,16h0.6v0.8h-0.6V16z M51.7,17.7h0.5V22h-0.5V17.7z"/>
		<path d="M53.4,19.1c0-0.4,0-0.9,0-1.3h0.5c0,0.2,0,0.3,0,0.6h0c0.1-0.2,0.4-0.7,1.1-0.7c1.2,0,1.2,1.2,1.2,1.5V22h-0.5v-2.9
			c0-0.3,0-1-0.8-1c-0.6,0-1,0.6-1,1.2V22h-0.5V19.1z"/>
		<path d="M57.5,18.2h-0.7v-0.5h0.7v-0.9c0-0.6,0.2-1.2,1.1-1.2c0.2,0,0.3,0,0.4,0v0.5c-0.1,0-0.2-0.1-0.4-0.1
			c-0.4,0-0.5,0.3-0.5,0.7v1h0.8v0.5H58V22h-0.5V18.2z"/>
		<path d="M62.1,21.1c0,0.3,0,0.6,0.1,1h-0.4l0-0.6h0c-0.3,0.5-0.7,0.7-1.2,0.7c-0.7,0-1.2-0.5-1.2-1.2c0-1.4,1.5-1.4,2.1-1.4h0.3
			c0-0.5,0-1.3-0.9-1.3c-0.6,0-1,0.4-1.1,0.4L59.6,18c0.4-0.2,0.7-0.4,1.2-0.4c1.3,0,1.3,1.1,1.3,1.4V21.1z M61.6,19.9
			c-1,0-1.9,0-1.9,1c0,0.4,0.3,0.8,0.8,0.8c0.2,0,1.1-0.1,1.1-1.3V19.9z"/>
		<path d="M65.5,18.4c-0.2-0.2-0.5-0.2-0.8-0.2c-0.7,0-1.3,0.5-1.3,1.6c0,1.6,0.9,1.8,1.3,1.8c0.2,0,0.6-0.1,0.7-0.2l0,0.6
			c-0.2,0.1-0.5,0.2-0.8,0.2c-0.9,0-1.8-0.7-1.8-2.2c0-1.3,0.6-2.2,1.8-2.2c0.3,0,0.6,0.1,0.8,0.2L65.5,18.4z"/>
		<path d="M66.3,15.7h0.5v2.7h0c0.1-0.2,0.4-0.7,1.1-0.7c1.2,0,1.2,1.2,1.2,1.5V22h-0.5v-2.9c0-0.3,0-1-0.8-1c-0.6,0-1,0.6-1,1.2V22
			h-0.5V15.7z"/>
		<path d="M74.9,21.1c0,0.3,0,0.6,0.1,1h-0.4l0-0.6h0c-0.3,0.5-0.7,0.7-1.2,0.7c-0.7,0-1.2-0.5-1.2-1.2c0-1.4,1.5-1.4,2.1-1.4h0.3
			c0-0.5,0-1.3-0.9-1.3c-0.6,0-1,0.4-1.1,0.4L72.4,18c0.4-0.2,0.7-0.4,1.2-0.4c1.3,0,1.3,1.1,1.3,1.4V21.1z M74.4,19.9
			c-1,0-1.9,0-1.9,1c0,0.4,0.3,0.8,0.8,0.8c0.2,0,1.1-0.1,1.1-1.3V19.9z"/>
		<path d="M76,19.1c0-0.4,0-0.9,0-1.3h0.5c0,0.2,0,0.3,0,0.6h0c0.1-0.2,0.4-0.7,1.1-0.7c1.2,0,1.2,1.2,1.2,1.5V22h-0.5v-2.9
			c0-0.3,0-1-0.8-1c-0.6,0-1,0.6-1,1.2V22H76V19.1z"/>
		<path d="M82.7,20.6c0,0.7,0,1.1,0,1.4h-0.5v-0.6h0c-0.3,0.4-0.6,0.6-1.1,0.6c-1.4,0-1.5-1.8-1.5-2.4c0-0.8,0.3-2.1,1.4-2.1
			c0.5,0,0.9,0.2,1.1,0.6h0v-2.6h0.5V20.6z M81.2,21.6c0.8,0,1.1-0.8,1.1-1.7c0-0.6,0-1.8-1.1-1.8c-0.7,0-1,0.8-1,1.8
			C80.2,20.2,80.2,21.6,81.2,21.6z"/>
		<path d="M84.1,20c0,1.6,1,1.6,1.2,1.6c0.3,0,0.7-0.1,0.9-0.4l0,0.6c-0.2,0.1-0.5,0.2-1,0.2c-1.7,0-1.7-1.8-1.7-2.2
			c0-1.6,0.8-2.2,1.5-2.2c1.2,0,1.4,1.3,1.4,2.4H84.1z M86,19.6c0-1.1-0.5-1.5-0.9-1.5c-0.7,0-1,0.9-1,1.5H86z"/>
		<path d="M87.4,19.1c0-0.4,0-0.9,0-1.3h0.5c0,0.3,0,0.5,0,0.7h0c0.3-0.6,0.7-0.7,1.1-0.7v0.5c-0.8,0-1.1,0.3-1.1,1.1V22h-0.5V19.1z
			"/>
		<path d="M91.5,18.3c-0.2-0.1-0.5-0.2-0.7-0.2c-0.5,0-0.7,0.4-0.7,0.7c0,0.4,0.2,0.5,0.7,0.8c0.6,0.3,1,0.5,1,1.2
			c0,0.8-0.5,1.2-1.3,1.2c-0.5,0-0.8-0.1-1.1-0.2l0.1-0.5c0.1,0.1,0.6,0.3,1,0.3c0.5,0,0.8-0.4,0.8-0.7c0-0.4-0.3-0.6-0.8-0.8
			c-0.7-0.4-1-0.6-1-1.2c0-0.8,0.7-1.2,1.3-1.2c0.3,0,0.6,0.1,0.8,0.1L91.5,18.3z"/>
		<path d="M92.5,21.2h0.7V22h-0.7V21.2z"/>
	</g>
</g>
</svg>
