<svg id="Ebene_1" data-name="Ebene 1" xmlns="http://www.w3.org/2000/svg" width="284" height="100" viewBox="0 0 284.36 99.26">
    <defs>
        <style>.cls-1{fill:#153f8e;}.cls-2{fill:#f39655;}</style>
    </defs>
    <title>ERV_Logo_2016_ohneClaim_cmyk</title>
    <path class="cls-1"
          d="M137.72,72.71a4.16,4.16,0,0,0,1.35,3.5,5.08,5.08,0,0,0,3.2,1h30.18q3,0,3.77-1.35a6.34,6.34,0,0,0,.77-3.2V69.55a9.29,9.29,0,0,0-.15-1.73,3.72,3.72,0,0,0-.62-1.46,2.88,2.88,0,0,0-1.35-1,6.85,6.85,0,0,0-2.43-.35H152.73V54.92h12.32q3,0,3.77-1.35a6.34,6.34,0,0,0,.77-3.2V47.61a6.34,6.34,0,0,0-.77-3.2q-0.77-1.35-3.77-1.35H152.73V34.21H172q3,0,3.77-1.35a6.34,6.34,0,0,0,.77-3.2V26.51a6.34,6.34,0,0,0-.77-3.2Q175,22,172,22H142.26a5.08,5.08,0,0,0-3.2,1,4.16,4.16,0,0,0-1.35,3.5v46.2h0Zm47.82,0a4.16,4.16,0,0,0,1.35,3.5,5.08,5.08,0,0,0,3.2,1H196a5.08,5.08,0,0,0,3.2-1,4.16,4.16,0,0,0,1.35-3.5V57.31h7L213.79,73A7.54,7.54,0,0,0,216,76.37a5.41,5.41,0,0,0,3.23.89h8.16a5.86,5.86,0,0,0,1.5-.19,2.32,2.32,0,0,0,1.15-.65,2,2,0,0,0,.46-1.27,4.79,4.79,0,0,0-.5-2L221,53a15.67,15.67,0,0,0,6.12-5.58,16,16,0,0,0,2.27-8.74Q229.35,22,206.79,22H190.08a5.08,5.08,0,0,0-3.2,1,4.16,4.16,0,0,0-1.35,3.5v46.2h0Zm15-27.1V34.21h6.7a14.83,14.83,0,0,1,2.35.19,6.8,6.8,0,0,1,2.23.77,4.48,4.48,0,0,1,1.69,1.69,5.84,5.84,0,0,1,.65,3,5.29,5.29,0,0,1-.77,3,5.52,5.52,0,0,1-1.89,1.73,7.12,7.12,0,0,1-2.46.81,17.72,17.72,0,0,1-2.5.19h-6Z"
          transform="translate(0 0)"/>
    <path class="cls-1"
          d="M248.21,72.86q0.85,2.93,2.35,3.66a7.9,7.9,0,0,0,3.5.73h9a8,8,0,0,0,3.46-.69q1.46-.69,2.46-3.7l15-46.51a4.72,4.72,0,0,0,.31-2.23,2.41,2.41,0,0,0-.62-1.31,2.59,2.59,0,0,0-1.23-.65,6.69,6.69,0,0,0-1.62-.19h-7.7a4.78,4.78,0,0,0-3.16,1,6.79,6.79,0,0,0-1.85,3.43L258.76,60h-0.15l-7.85-33.57A6.84,6.84,0,0,0,249,23a4.51,4.51,0,0,0-3.12-1h-8.24a6.68,6.68,0,0,0-1.62.19,2.85,2.85,0,0,0-1.27.65,2.1,2.1,0,0,0-.62,1.31,5.79,5.79,0,0,0,.27,2.23l13.78,46.51h0Z"
          transform="translate(0 0)"/>
    <path class="cls-2"
          d="M73.19,0.06a1.69,1.69,0,0,0-1.34,3.07A55.27,55.27,0,0,1,97.7,49.63a55.26,55.26,0,0,1-25.85,46.5,1.69,1.69,0,0,0,1.34,3.07c23-5.77,40-25.77,40-49.56S96.23,5.83,73.19.06Z"
          transform="translate(0 0)"/>
    <path class="cls-1"
          d="M23.17,12.78A40.12,40.12,0,0,0,1,58c-1.11-9.88,10.67-23.29,28.52-31.61s35.69-8.73,42.54-1.53A40.11,40.11,0,0,0,23.17,12.78Z"
          transform="translate(0 0)"/>
    <path class="cls-1"
          d="M80,47.44a5,5,0,0,1,.19.47,39.93,39.93,0,0,0-3-14.05L77,33.37C72.14,23,52,22.12,31.88,31.47S-0.5,56.85,4.35,67.25l0.23,0.46a39.88,39.88,0,0,0,8.83,11.34,4.53,4.53,0,0,1-.24-0.44C10.1,72,22.58,59.71,41,51.11S77,40.86,80,47.44Z"
          transform="translate(0 0)"/>
    <path class="cls-1"
          d="M17.17,81.27A4.55,4.55,0,0,0,19,83.2,40.12,40.12,0,0,0,79.81,54.83a4.55,4.55,0,0,0-.33-2.63c-2.7-5.8-18.84-4-36.06,4s-29,19.23-26.26,25h0Z"
          transform="translate(0 0)"/>
</svg>
