<?xml version="1.0" encoding="utf-8"?>
<!-- Generator: Adobe Illustrator 22.1.0, SVG Export Plug-In . SVG Version: 6.00 Build 0)  -->
<svg version="1.1"
	 id="svg2" inkscape:version="0.48.1 r9760" sodipodi:docname="Dossier_Presse_D.pdf" xmlns:cc="http://creativecommons.org/ns#" xmlns:dc="http://purl.org/dc/elements/1.1/" xmlns:inkscape="http://www.inkscape.org/namespaces/inkscape" xmlns:rdf="http://www.w3.org/1999/02/22-rdf-syntax-ns#" xmlns:sodipodi="http://sodipodi.sourceforge.net/DTD/sodipodi-0.dtd" xmlns:svg="http://www.w3.org/2000/svg"
	 xmlns="http://www.w3.org/2000/svg" xmlns:xlink="http://www.w3.org/1999/xlink" x="0px" y="0px" viewBox="0 0 480.1 145.2"
	 style="enable-background:new 0 0 480.1 145.2;" xml:space="preserve"
   preserveAspectRatio="xMidYMid meet">
<style type="text/css">
	.st0{clip-path:url(#SVGID_2_);}
	.st1{fill:#00A650;}
</style>
<sodipodi:namedview  bordercolor="#666666" borderopacity="1" fit-margin-bottom="0" fit-margin-left="0" fit-margin-right="0" fit-margin-top="0" gridtolerance="10" guidetolerance="10" id="namedview4" inkscape:current-layer="g76" inkscape:cx="203.22849" inkscape:cy="83.417262" inkscape:pageopacity="0" inkscape:pageshadow="2" inkscape:window-height="684" inkscape:window-maximized="0" inkscape:window-width="1043" inkscape:window-x="0" inkscape:window-y="0" inkscape:zoom="0.49786223" objecttolerance="10" pagecolor="#ffffff" showgrid="false">
	</sodipodi:namedview>
<g id="g10" transform="matrix(1.25,0,0,-1.25,-140.24079,409.90101)" inkscape:groupmode="layer" inkscape:label="Dossier_Presse_D">
	<g id="g76" transform="translate(-44.992366,64.274809)">
		<g>
			<defs>
				<rect id="SVGID_1_" x="109.2" y="132.9" width="480.1" height="145.2"/>
			</defs>
			<clipPath id="SVGID_2_">
				<use xlink:href="#SVGID_1_"  style="overflow:visible;"/>
			</clipPath>
			<g id="g78" class="st0">
				<g id="g84" transform="translate(327.256,177.318)">
					<path id="path86" inkscape:connector-curvature="0" class="st1" d="M0,0c-1.9-0.9-4-1.7-6.5-1.7c-2.5,0-4.1,1.7-4.1,4.2
						c0,3.2,3.1,5,6.9,5.6L0,8.8V0z M8.5-2.5l-0.4,12v7.7c0,8.2-6.9,9.3-11.8,9.3c-5.1,0-10.3-2.7-12.7-4.4l0.9-2.3
						c3.1,0.8,6,1.3,8.2,1.3c4.9,0,7.4-1.5,7.4-5.6v-3.9l-5.3-0.6c-6.5-0.8-13.5-2.8-13.5-10.7c0-4.2,3.1-7.6,8.1-7.6
						c5.2,0,8.6,3,10.8,5.6c0.2-3.5,1.4-5.6,5.7-5.6c2.3,0,6,1.6,7.8,3.3l-0.2,1.6C13.5-2.4,8.5-2.4,8.5-2.5z M160.8,19.3
						c0,2.3,1.8,3.8,5,3.8c5.9,0,7.2-3.2,8-6.9l2-0.2l1,7.9c-3.5,1.8-6.5,2.5-10.4,2.5c-6.7,0-12.6-4-12.6-10.2
						c0-11.2,16.9-10.4,16.9-16c0-2.7-2.3-4.3-5.6-4.3c-4.6,0-7.7,3.2-8.5,7.9L154.3,4l-0.5-8.8c3.6-1.6,7-2.6,11.2-2.6
						c6.2,0,13.6,2.9,13.6,10.8C178.6,13.7,160.8,12.9,160.8,19.3z M139.7,33.5c2.7,0,4.8,2.2,4.8,4.8c0,2.7-2.1,4.8-4.8,4.8
						c-2.7,0-4.8-2.2-4.8-4.8C134.8,35.7,137,33.5,139.7,33.5z M192.3,12.8c0.2,7.1,3.1,10.3,6.9,10.3c4.4,0,6.1-4.2,6.1-10.3
						C205.3,12.8,192.3,12.8,192.3,12.8z M214,11c0,8.5-4.1,15.6-13.5,15.6c-9.9,0-16.7-8.6-16.7-18.1c0-9.7,5.9-15.9,16.8-15.9
						c5.6,0,10.4,2.3,13,5.4l-0.9,2c-3.6-0.8-6.9-1.2-9.1-1.2c-6.3,0-10.7,2.7-11.2,10.8H214L214,11L214,11z M144-1.6l-0.1,11v14.3
						c0,2.1-1,2.6-2.8,2.6c-2.9,0-7.6-0.6-10.8-1.3v-2.7h5.5V9.4l-0.2-10.6c0-1.3-0.5-2.3-1.6-2.7L130.3-5c0-0.8,0.1-1.1,0.2-1.9
						H149c0.3,0.8,0.4,1.5,0.4,2.1L145-3.7C144.3-3.5,144-3.1,144-1.6L144-1.6z M110.9-3.6c-6.5,0-8.1,6.6-8.1,13.6
						c0,6.5,1.6,12.7,7.2,12.7c6.3,0,7.7-6.3,7.7-13.9C117.7,2.7,116.6-3.6,110.9-3.6z M110.5,26.5c-9.1,0-16.4-8.8-16.4-17.6
						c0-11.4,6-16.3,15.8-16.3c9.4,0,16.6,8.8,16.6,17.5C126.5,21.3,121.1,26.5,110.5,26.5z M78.5,9.9L78.3-0.2
						c-1.5-0.5-3.3-1.3-5.5-1.3c-4.5,0-7.7,3.4-7.7,10.9c0,8.8,2.3,13,8.4,13c2.3,0,3.7-0.5,5-1C78.5,21.5,78.5,9.9,78.5,9.9z
						 M86.8-2.5L86.6,9.8v32c0,2.4-0.8,3-3.1,3c-2.8,0-7.3-0.6-10.5-1.3v-2.8h5.5v-15c-1.4,0.2-2.9,0.4-5.1,0.4
						c-9.4,0-16.9-6.9-16.9-17.9c0-12.6,6.5-15.6,12.9-15.6c4.1,0,7,2.3,9,4.6c0-2.2,0.8-4.6,3.8-4.6c4.4,0,7.4,1.5,10,2.9l-0.4,2
						C91.8-2.5,86.8-2.5,86.8-2.5z M48.4-2.5L48.1,9.4v13.7c0,2.3-1.5,3.3-3.8,3.3c-2.9,0-6.3-0.8-9.3-1.6v-2.4h5v-13l-0.2-9
						c-1.9-0.8-4.3-2-7.8-2c-4,0-4.5,2.9-4.6,6.4v18.3c0,2.3-1.3,3.3-3.8,3.3c-2.8,0-6.2-0.7-9.5-1.6v-2.4h5.1V3.7
						c0-5.6,0.7-11.1,9.5-11.1c4.7,0,8.1,2.6,11.1,5.6c0.1-3.5,1.7-5.5,4.9-5.5c3.9,0,6.8,1.8,9,3.2l-0.2,1.7
						C53.5-2.4,48.4-2.4,48.4-2.5z M-30.3,23.7l2.7-0.9c0.8-0.3,1.3-0.9,1.3-1.9c0-0.5-0.1-1.1-0.4-1.9l-7.7-19.6l-8.4,26.3h-11.8
						c-0.2-0.7-0.1-1.8,0-2.3c2.8-1,3.7-0.7,4.7-3.3l10.1-28.6l6,1.7l10.4,24.9c1.1,2.7,2.2,5,3.2,6.2c0.1,0.2,0.1,1.3,0.1,1.5
						h-10.3C-30.4,25.1-30.4,24.5-30.3,23.7z M-83.1,12.1C-86.8,6.5-91.5,4-95.6,4c-0.3,0-0.5,0-0.8,0c-9.9,0.8-17.2,14-20,19.2
						c1.9,4.6,5,12,9.3,18.5c4.4,6.6,10,12.3,16.5,13.3c0.6,0.1,1.1,0.1,1.7,0.1c3.8,0,6.9-2.1,9-5.4c2.1-3.2,3.2-7.6,3.2-11.8
						C-76.6,26.2-79.4,17.7-83.1,12.1z M-127.6,5.6c-1.7-3.4-6.1-10.3-12.8-11.8c-0.8-0.2-1.6-0.3-2.5-0.3c-6,0-13.5,4.2-15.1,12.9
						c-0.2,1.1-0.3,2.2-0.3,3.3c0,6.3,3.2,12.7,10.6,15.1c1.2,0.4,2.4,0.6,3.6,0.6c7.1,0,13.4-7.1,17.3-18.1
						C-126.9,7-127.2,6.4-127.6,5.6z M-74.7,82.7c-1.6,2.4-3.7,3.7-6.1,3.7c-3.6,0-7.8-2.9-12.2-8.9c-7.4-10.1-15.7-29.2-25.1-51.5
						c-3.7,6.4-12.4,15.7-24.7,15.7c-3,0-6.3-0.6-9.7-1.9c-13.2-5-17.6-17.2-17.6-25.4c0-14,10.6-25.5,23.3-25.8c0.1,0,0.3,0,0.4,0
						c7.6,0,12.9,4.1,16.3,8.2c2.5,3,4,5.9,4.6,7.3c5.1-12.5,10.6-22.6,14.4-27.3c3.4-4.3,7.1-6.6,10.7-6.6h0c3.4,0,6.7,2.1,9.5,6.5
						c7.5,11.7,12.7,29.3,16.5,46.2c2.2,10,3.7,24,3.7,36.3c0,4.9-0.2,9.5-0.8,13.4C-72,76.9-73.1,80.3-74.7,82.7"/>
				</g>
			</g>
		</g>
	</g>
</g>
</svg>
